<?xml version="1.0" encoding="UTF-8" standalone="no"?>
<!-- Generator: Adobe Illustrator 13.0.0, SVG Export Plug-In . SVG Version: 6.00 Build 14948)  -->

<svg
   xmlns:dc="http://purl.org/dc/elements/1.1/"
   xmlns:cc="http://creativecommons.org/ns#"
   xmlns:rdf="http://www.w3.org/1999/02/22-rdf-syntax-ns#"
   xmlns:svg="http://www.w3.org/2000/svg"
   xmlns="http://www.w3.org/2000/svg"
   xmlns:sodipodi="http://sodipodi.sourceforge.net/DTD/sodipodi-0.dtd"
   xmlns:inkscape="http://www.inkscape.org/namespaces/inkscape"
   version="1.1"
   id="svg3874"
   inkscape:export-filename="C:\Users\ebento.QVGLOBAL\Desktop\vba8.png"
   sodipodi:docname="vba10.svg"
   inkscape:export-xdpi="11.839321"
   inkscape:export-ydpi="11.839321"
   inkscape:version="0.48.4 r9939"
   x="0px"
   y="0px"
   width="744.094px"
   height="1052.363px"
   viewBox="0 0 744.094 1052.363"
   enable-background="new 0 0 744.094 1052.363"
   xml:space="preserve"><metadata
     id="metadata19"><rdf:RDF><cc:Work
         rdf:about=""><dc:format>image/svg+xml</dc:format><dc:type
           rdf:resource="http://purl.org/dc/dcmitype/StillImage" /><dc:title></dc:title></cc:Work></rdf:RDF></metadata><defs
     id="defs17" /><sodipodi:namedview
     id="base"
     inkscape:cy="544.61396"
     pagecolor="#ffffff"
     showgrid="false"
     bordercolor="#666666"
     borderopacity="1.0"
     inkscape:zoom="0.7"
     inkscape:cx="119.17623"
     inkscape:window-maximized="1"
     inkscape:pageopacity="0.0"
     inkscape:pageshadow="2"
     inkscape:document-units="px"
     inkscape:current-layer="layer1"
     inkscape:window-width="1920"
     inkscape:window-height="1028"
     inkscape:window-x="0"
     inkscape:window-y="0" /><g
     id="layer1"
     inkscape:groupmode="layer"
     inkscape:label="Layer 1"><g
       id="g5"><g
         id="g7"><path
           d="m 681.467,563.433 c -0.465,-44.271 -5.613,-88.671 -13.27,-132.698 -4.299,-24.726 -20.021,-23.172 -33.342,-24.884 -26.435,-3.396 -58.979,-11.862 -88.744,-30.854 -16.658,-10.629 -39.666,-14.593 -63.695,-14.597 l -275.111,-0.043 c -17.938,-0.003 -24.328,7.614 -31.435,12.667 -25.673,18.257 -57.491,30.773 -93.549,35.148 -14.356,1.741 -26.475,2.709 -29.858,23.886 -10.284,64.374 -15.479,129.2 -15.924,194.407 -0.114,16.705 4.784,32.584 23.166,47.994 4.765,3.994 10.043,4.342 19.299,7.078 19.463,5.75 39.076,11.014 58.389,17.25 12.714,4.104 25.213,8.848 37.82,13.27 35.779,12.558 70.968,17.791 106.824,19.906 74.092,4.371 147.952,2.818 217.629,-8.625 17.613,-2.895 33.092,-8.713 47.773,-14.598 8.95,-3.59 17.813,-6.074 26.536,-8.625 23.445,-6.857 46.892,-13.713 70.332,-20.57 15.127,-4.424 24.777,-13.186 30.854,-23.223 11.267,-18.6 6.644,-60.694 6.306,-92.889 z m -552.551,-0.912 h -21.413 c -2.144,0.061 -3.654,-0.937 -3.708,-4.357 v -22.941 h -21.97 c -4.173,-0.063 -4.301,-1.17 -4.356,-3.848 L 77.283,511.26 c -0.084,-2.478 0.479,-4.577 4.542,-4.636 h 21.969 v -23.267 c -0.027,-2.842 0.821,-3.601 3.708,-3.615 h 21.413 c 2.211,0.369 2.741,1.857 2.874,3.615 v 23.267 h 22.154 c 3.421,-0.11 5.809,0.916 5.748,4.636 l 0.185,20.115 c -0.191,2.473 -1.565,4.158 -5.933,3.848 h -22.154 v 22.941 c 0.528,2.642 0.078,4.5 -2.873,4.357 z m 34.52,94.551 c -5.313,0 -9.621,-4.197 -9.621,-9.373 0,-5.176 4.307,-9.371 9.621,-9.371 5.314,0 9.621,4.195 9.621,9.371 0,5.176 -4.308,9.373 -9.621,9.373 z m 0,-36.576 c -5.313,0 -9.621,-4.197 -9.621,-9.373 0,-5.176 4.307,-9.371 9.621,-9.371 5.314,0 9.621,4.195 9.621,9.371 0,5.176 -4.308,9.373 -9.621,9.373 z m 333.576,61.705 c -92.237,19.354 -185.933,17.979 -279.336,0 -29.063,-5.594 -35.102,-28.226 -33.839,-50.426 l 10.948,-192.417 c 1.146,-20.154 13.2,-24.918 28.531,-26.209 95.583,-8.048 183.893,-4.633 272.37,-0.995 24.033,0.984 29.89,12.747 30.521,26.54 l 9.289,202.37 c 1.059,23.074 -14.714,36.15 -38.484,41.137 z m 76.012,-259.913 c 4.209,0 7.622,3.178 7.622,7.097 0,3.919 -3.413,7.099 -7.622,7.099 -4.212,0 -7.625,-3.18 -7.625,-7.099 0,-3.919 3.414,-7.097 7.625,-7.097 z m -0.371,88.066 c 11.356,0 20.565,9.14 20.565,20.408 0,11.271 -9.209,20.408 -20.565,20.408 -11.359,0 -20.568,-9.137 -20.568,-20.408 -0.001,-11.272 9.208,-20.408 20.568,-20.408 z m -20.776,89.558 66.719,-16.107 c 1.64,-0.396 3.265,0.56 3.646,2.14 0.381,1.575 -0.629,3.168 -2.269,3.563 l -66.719,16.109 c -1.637,0.395 -3.262,-0.562 -3.643,-2.14 -0.382,-1.581 0.63,-3.169 2.266,-3.565 z m 0,13.605 66.719,-16.104 c 1.64,-0.396 3.265,0.557 3.646,2.137 0.381,1.578 -0.629,3.168 -2.269,3.564 l -66.719,16.104 c -1.637,0.396 -3.262,-0.557 -3.643,-2.137 -0.382,-1.578 0.63,-3.167 2.266,-3.564 z m 68.096,30.881 -66.719,16.104 c -1.637,0.396 -3.262,-0.557 -3.643,-2.137 -0.383,-1.578 0.629,-3.168 2.266,-3.564 l 66.719,-16.104 c 1.64,-0.396 3.265,0.557 3.646,2.137 0.38,1.578 -0.632,3.167 -2.269,3.564 z m 0,-13.373 -66.719,16.106 c -1.637,0.396 -3.262,-0.559 -3.643,-2.137 -0.383,-1.58 0.629,-3.168 2.266,-3.564 l 66.719,-16.104 c 1.64,-0.396 3.265,0.557 3.646,2.137 0.38,1.578 -0.632,3.167 -2.269,3.562 z m 0,-14.309 -66.719,16.109 c -1.637,0.395 -3.262,-0.562 -3.643,-2.142 -0.383,-1.575 0.629,-3.168 2.266,-3.563 l 66.719,-16.109 c 1.64,-0.395 3.265,0.562 3.646,2.14 0.38,1.581 -0.632,3.169 -2.269,3.565 z m 13.06,-86.288 c -11.359,0 -20.568,-9.136 -20.568,-20.407 0,-11.271 9.209,-20.406 20.568,-20.406 11.356,0 20.565,9.138 20.565,20.407 0.001,11.27 -9.207,20.406 -20.565,20.406 z M 216.629,623.482 H 502.6 V 441.349 H 216.629 v 182.133 z"
           id="path9"
           inkscape:connector-curvature="0"
           style="fill:#ffffff" /></g></g><g
       id="g3968"
       transform="matrix(0.897574,0,0,0.897574,33.319918,50.33779)"><g
         transform="translate(2.1143044,210.49584)"
         id="g3863"><path
           style="fill:#312d2e"
           d="m 491.429,287.93551 7.82794,0 0,76.70792 -8.24194,0 -185.326,0 0,-14.73343 -8.763,14.73343 -31.192,0 -42.163,-76.71043 128.689,0.003 c 10.788,2.1e-4 19.936,2.94749 19.912,12.32349 l 9.301,-12.32349 109.956,0 z"
           sodipodi:nodetypes="cccccccccscccc"
           inkscape:connector-curvature="0"
           id="path3831" /><path
           style="fill:#ffffff"
           d="m 392.994,351.97642 -0.293,-12.21642 -13.445,0 15.053,-24.845 21.45831,37.06142 10.54769,0 3.69936,0 -0.16943,-11.36818 -4.11393,0.0288 -23.679,-40.261 -15.489,0 -30.105,51.591 36.536,0.009 z"
           sodipodi:nodetypes="cccccccccccccc"
           inkscape:connector-curvature="0"
           id="path4015-7" /><path
           style="fill:#ffffff"
           d="m 281.338,300.35622 0,11.89193 -13.591,0 15.053,25.02685 21.22371,-36.91878 15.99539,0 0,11.89193 -5.0541,0 -24.418,39.72189 -15.492,0 -30.105,-51.61382 z"
           sodipodi:nodetypes="cccccccccccc"
           inkscape:connector-curvature="0"
           id="path4015-8-0" /><path
           style="fill:#ffffff"
           d="m 350.194,332.604 c 5.705,0 5.467,8.76 0,8.76 h -21.443 v -8.76 h 21.443 z m 0,-21.459 c 5.705,0 5.467,8.76 0,8.76 h -21.443 v -8.76 h 21.443 z m -35.23,-10.769 v 51.591 h 42.369 c 7.2,0 14.661,-5.715 14.637,-12.549 -0.02,-6.369 -4.452,-13.793 -17.217,-14.945 11.597,-1.838 14.029,-6.93 14.254,-12.061 0.31,-7.003 -5.201,-12.036 -13.327,-12.036 h -40.716 l 0,0 z"
           sodipodi:nodetypes="ssccsssccsscsccsss"
           inkscape:connector-curvature="0"
           id="path3995-1-9" /></g><path
         style="fill:#ffffff;fill-opacity:1"
         d="m 423.30242,522.56411 4.55962,0 0,39.90815 13.83105,0 0,-51.71226 -25.3039,0.0347 z"
         sodipodi:nodetypes="ccccccc"
         inkscape:connector-curvature="0"
         id="path4015-8-0-7-0-6" /><path
         sodipodi:nodetypes="sssssssssccccc"
         inkscape:connector-curvature="0"
         d="m 446.11501,518.98185 c 0,-4.726 5.268,-8.106 8.842,-8.106 l 23.72343,0 c 4.256,0 8.988,3.853 8.988,8.106 l 0,33.61201 c 0,4.688 -4.306,9.86898 -8.988,9.86898 l -23.72343,0 c -4.055,0 -8.842,-5.81598 -8.842,-9.86898 z m 27.72321,2.78971 -13.893,0.0893 0,29.80001 13.893,-0.0893 z"
         style="fill:#ffffff;fill-opacity:1"
         id="path4021-4-4-4" /></g></g></svg>