<?xml version="1.0" encoding="utf-8"?>
<!-- Generator: Adobe Illustrator 13.0.0, SVG Export Plug-In . SVG Version: 6.00 Build 14948)  -->
<!DOCTYPE svg PUBLIC "-//W3C//DTD SVG 1.1//EN" "http://www.w3.org/Graphics/SVG/1.1/DTD/svg11.dtd">
<svg version="1.1"
	 id="svg3874" xmlns:cc="http://creativecommons.org/ns#" xmlns:rdf="http://www.w3.org/1999/02/22-rdf-syntax-ns#" xmlns:svg="http://www.w3.org/2000/svg" xmlns:sodipodi="http://sodipodi.sourceforge.net/DTD/sodipodi-0.dtd" xmlns:inkscape="http://www.inkscape.org/namespaces/inkscape" xmlns:dc="http://purl.org/dc/elements/1.1/" inkscape:version="0.48.4 r9939" inkscape:export-ydpi="11.839321" inkscape:export-xdpi="11.839321" sodipodi:docname="vba10.svg" inkscape:export-filename="C:\Users\ebento.QVGLOBAL\Desktop\vba8.png"
	 xmlns="http://www.w3.org/2000/svg" xmlns:xlink="http://www.w3.org/1999/xlink" x="0px" y="0px" width="744.094px"
	 height="1052.363px" viewBox="0 0 744.094 1052.363" enable-background="new 0 0 744.094 1052.363" xml:space="preserve">
<sodipodi:namedview  inkscape:zoom="0.7" borderopacity="1.0" bordercolor="#666666" showgrid="false" pagecolor="#ffffff" inkscape:cy="544.61396" inkscape:cx="119.17623" id="base" inkscape:window-y="0" inkscape:window-x="0" inkscape:window-height="1028" inkscape:window-width="1920" inkscape:current-layer="layer1" inkscape:document-units="px" inkscape:pageshadow="2" inkscape:pageopacity="0.0" inkscape:window-maximized="1">
	</sodipodi:namedview>
<g id="layer1" inkscape:label="Layer 1" inkscape:groupmode="layer">
	<g id="g5">
		<g id="g7">
			<path id="path9" inkscape:connector-curvature="0" fill="#FFFFFF" d="M692.467,563.433c-0.465-44.271-5.613-88.671-13.27-132.697
				c-4.299-24.727-20.021-23.173-33.342-24.885c-26.436-3.396-58.979-11.862-88.744-30.854
				c-16.658-10.629-39.666-14.593-63.695-14.597l-275.111-0.043c-17.938-0.003-24.328,7.614-31.435,12.667
				c-25.673,18.257-57.491,30.773-93.549,35.148c-14.356,1.741-26.475,2.709-29.858,23.886
				c-10.284,64.374-15.479,129.2-15.924,194.407c-0.114,16.705,4.784,32.584,23.166,47.994c4.765,3.994,10.043,4.342,19.299,7.078
				c19.463,5.75,39.076,11.014,58.389,17.25c12.714,4.104,25.213,8.848,37.82,13.27c35.779,12.559,70.968,17.791,106.824,19.906
				c74.092,4.371,147.952,2.818,217.629-8.625c17.613-2.895,33.092-8.713,47.773-14.598c8.949-3.59,17.813-6.074,26.535-8.625
				c23.445-6.857,46.893-13.713,70.332-20.57c15.127-4.424,24.777-13.186,30.854-23.223
				C697.428,637.722,692.805,595.628,692.467,563.433L692.467,563.433z M139.916,562.521h-21.413
				c-2.144,0.061-3.654-0.938-3.708-4.357v-22.941h-21.97c-4.173-0.063-4.301-1.17-4.356-3.848l-0.186-20.115
				c-0.084-2.478,0.479-4.577,4.542-4.636h21.969v-23.267c-0.027-2.843,0.821-3.602,3.708-3.615h21.413
				c2.211,0.369,2.741,1.856,2.874,3.615v23.267h22.154c3.421-0.11,5.809,0.916,5.748,4.636l0.185,20.115
				c-0.191,2.473-1.565,4.158-5.933,3.848h-22.154v22.941C143.317,560.806,142.867,562.664,139.916,562.521L139.916,562.521z
				 M174.436,657.072c-5.313,0-9.621-4.197-9.621-9.373s4.307-9.371,9.621-9.371s9.621,4.195,9.621,9.371
				S179.749,657.072,174.436,657.072z M174.436,620.496c-5.313,0-9.621-4.197-9.621-9.373s4.307-9.371,9.621-9.371
				s9.621,4.195,9.621,9.371S179.749,620.496,174.436,620.496z M508.012,682.201c-92.236,19.354-185.933,17.979-279.336,0
				c-29.063-5.594-35.102-28.227-33.839-50.426l10.948-192.417c1.146-20.154,13.2-24.918,28.531-26.209
				c95.583-8.049,183.893-4.634,272.37-0.995c24.033,0.983,29.891,12.747,30.521,26.54l9.289,202.37
				C547.555,664.138,531.782,677.214,508.012,682.201L508.012,682.201z M584.024,422.288c4.209,0,7.622,3.178,7.622,7.097
				s-3.413,7.1-7.622,7.1c-4.212,0-7.625-3.181-7.625-7.1S579.813,422.288,584.024,422.288L584.024,422.288z M583.653,510.354
				c11.355,0,20.564,9.14,20.564,20.407c0,11.271-9.209,20.408-20.564,20.408c-11.359,0-20.568-9.137-20.568-20.408
				C563.084,519.49,572.293,510.354,583.653,510.354L583.653,510.354z M562.877,599.912l66.719-16.107
				c1.641-0.396,3.266,0.561,3.646,2.141c0.381,1.575-0.629,3.168-2.27,3.563l-66.719,16.109c-1.637,0.395-3.262-0.563-3.643-2.141
				C560.229,601.896,561.241,600.308,562.877,599.912z M562.877,613.517l66.719-16.104c1.641-0.396,3.266,0.557,3.646,2.137
				c0.381,1.578-0.629,3.168-2.27,3.564l-66.719,16.104c-1.637,0.396-3.262-0.557-3.643-2.137
				C560.229,615.503,561.241,613.914,562.877,613.517z M630.973,644.398l-66.719,16.104c-1.637,0.396-3.262-0.557-3.643-2.137
				c-0.383-1.578,0.629-3.168,2.266-3.564l66.719-16.104c1.641-0.396,3.266,0.557,3.646,2.137
				C633.622,642.412,632.61,644.001,630.973,644.398z M630.973,631.025l-66.719,16.105c-1.637,0.396-3.262-0.559-3.643-2.137
				c-0.383-1.58,0.629-3.168,2.266-3.564l66.719-16.104c1.641-0.396,3.266,0.557,3.646,2.137
				C633.622,629.041,632.61,630.63,630.973,631.025z M630.973,616.716l-66.719,16.109c-1.637,0.395-3.262-0.563-3.643-2.143
				c-0.383-1.574,0.629-3.168,2.266-3.563l66.719-16.109c1.641-0.395,3.266,0.563,3.646,2.141
				C633.622,614.732,632.61,616.32,630.973,616.716z M644.033,530.428c-11.359,0-20.568-9.136-20.568-20.407
				c0-11.271,9.209-20.405,20.568-20.405c11.355,0,20.564,9.138,20.564,20.406C664.599,521.292,655.391,530.428,644.033,530.428z
				 M227.629,623.482H513.6V441.349H227.629V623.482z"/>
		</g>
	</g>
	<g id="g3968" transform="matrix(0.897574,0,0,0.897574,33.319918,50.33779)">
		<g id="g3863" transform="translate(2.1143044,210.49584)">
			<path id="path3831" sodipodi:nodetypes="cccccccccscccc" inkscape:connector-curvature="0" fill="#312D2E" d="M500.342,287.935
				h14.513v76.707h-14.927H314.601V349.91l-8.763,14.733h-31.192l-42.163-76.71l128.689,0.002
				c10.788,0.001,19.935,2.948,19.912,12.324l9.301-12.324H500.342L500.342,287.935z"/>
			<path id="path4015-7" sodipodi:nodetypes="cccccccccccccc" inkscape:connector-curvature="0" fill="#FFFFFF" d="M401.907,351.976
				l-0.293-12.216h-13.446l15.053-24.846l21.459,37.062h10.548h3.699l-0.17-11.369l-4.114,0.029l-23.679-40.262h-15.489
				l-30.105,51.591L401.907,351.976L401.907,351.976z"/>
			<path id="path4015-8-0" sodipodi:nodetypes="cccccccccccc" inkscape:connector-curvature="0" fill="#FFFFFF" d="M290.251,300.356
				v11.892H276.66l15.053,25.027l21.224-36.919h15.996v11.892h-5.055L299.46,351.97h-15.492l-30.105-51.614H290.251z"/>
			<path id="path3995-1-9" sodipodi:nodetypes="ssccsssccsscsccsss" inkscape:connector-curvature="0" fill="#FFFFFF" d="
				M359.107,332.604c5.704,0,5.467,8.76,0,8.76h-21.443v-8.76H359.107z M359.107,311.145c5.704,0,5.467,8.761,0,8.761h-21.443
				v-8.761H359.107z M323.877,300.376v51.591h42.369c7.2,0,14.661-5.714,14.637-12.549c-0.02-6.368-4.452-13.793-17.217-14.945
				c11.597-1.838,14.029-6.93,14.254-12.061c0.31-7.003-5.201-12.037-13.327-12.037H323.877L323.877,300.376L323.877,300.376z"/>
		</g>
		<path id="path4015-8-0-7-0-6" sodipodi:nodetypes="ccccccc" inkscape:connector-curvature="0" fill="#FFFFFF" d="M434.444,522.564
			h4.559v39.908h24.165l-7.799-11.339h-2.534v-40.374l-25.304,0.035L434.444,522.564z"/>
		<path id="path4021-4-4-4" sodipodi:nodetypes="sssssssssccccc" inkscape:connector-curvature="0" fill="#FFFFFF" d="
			M456.576,518.982c0-4.725,6.005-8.106,10.079-8.106H493.7c4.851,0,10.246,3.853,10.246,8.106v33.613
			c0,4.687-4.907,9.868-10.246,9.868h-27.044c-4.622,0-10.079-5.815-10.079-9.868V518.982z M488.181,521.771l-15.839,0.089v29.8
			l15.839-0.089V521.771z"/>
	</g>
</g>
</svg>
